# Blender 5.2.0 LTS
# www.blender.org
mtllib building_modular.mtl
o window
v -0.250000 -1.500000 1.000000
v -0.250000 1.500000 1.000000
v -0.250000 -1.500000 -1.000000
v -0.250000 1.500000 -1.000000
v 0.250000 -1.500000 1.000000
v 0.250000 1.500000 1.000000
v 0.250000 -1.500000 -1.000000
v 0.250000 1.500000 -1.000000
v -0.250000 -1.116637 1.000000
v -0.250000 1.116637 1.000000
v -0.250000 1.116637 -1.000000
v -0.250000 -1.116637 -1.000000
v 0.250000 1.116637 -1.000000
v 0.250000 -1.116637 -1.000000
v 0.250000 1.116637 1.000000
v 0.250000 -1.116637 1.000000
v -0.250000 -1.500000 -0.583626
v -0.250000 -1.500000 0.583626
v -0.250000 1.500000 0.583626
v -0.250000 1.500000 -0.583626
v 0.250000 -1.500000 0.583626
v 0.250000 -1.500000 -0.583626
v 0.250000 1.500000 -0.583626
v 0.250000 1.500000 0.583626
v 0.250000 -1.116637 -0.583626
v 0.250000 -1.116637 0.583626
v 0.250000 1.116637 -0.583626
v 0.250000 1.116637 0.583626
v -0.250000 -1.116637 0.583626
v -0.250000 -1.116637 -0.583626
v -0.250000 1.116637 0.583626
v -0.250000 1.116637 -0.583626
v -0.250000 1.308319 1.000000
v -0.250000 1.308319 -1.000000
v 0.250000 1.308319 -1.000000
v 0.250000 1.308319 1.000000
v 0.250000 1.308319 -0.583626
v 0.250000 1.308319 0.583626
v -0.250000 1.308319 0.583626
v -0.250000 1.308319 -0.583626
v -0.250000 -1.308319 -1.000000
v 0.250000 -1.308319 -1.000000
v 0.250000 -1.308319 1.000000
v -0.250000 -1.308319 1.000000
v -0.250000 -1.308319 0.583626
v -0.250000 -1.308319 -0.583626
v 0.250000 -1.308319 -0.583626
v 0.250000 -1.308319 0.583626
v -0.250000 1.500000 -0.791813
v 0.250000 -1.500000 -0.791813
v -0.250000 -1.116637 -0.791813
v -0.250000 1.116637 -0.791813
v -0.250000 -1.500000 -0.791813
v 0.250000 1.500000 -0.791813
v 0.250000 -1.116637 -0.791813
v 0.250000 1.116637 -0.791813
v 0.250000 1.308319 -0.791813
v -0.250000 1.308319 -0.791813
v 0.250000 -1.308319 -0.791813
v -0.250000 -1.308319 -0.791813
v -0.250000 -1.500000 0.791813
v 0.250000 1.500000 0.791813
v 0.250000 -1.116637 0.791813
v 0.250000 1.116637 0.791813
v -0.250000 1.500000 0.791813
v 0.250000 -1.500000 0.791813
v -0.250000 -1.116637 0.791813
v -0.250000 1.116637 0.791813
v -0.250000 1.308319 0.791813
v 0.250000 1.308319 0.791813
v -0.250000 -1.308319 0.791813
v 0.250000 -1.308319 0.791813
v 0.333076 -1.116637 -0.791813
v 0.333076 -1.116637 -0.583626
v 0.333076 -1.116637 0.583626
v 0.333076 1.116637 -0.791813
v 0.333076 1.116637 -0.583626
v 0.333076 1.116637 0.583626
v 0.333076 1.308319 -0.583626
v 0.333076 1.308319 0.583626
v 0.333076 1.308319 -0.791813
v 0.333076 -1.308319 -0.583626
v 0.333076 -1.308319 0.583626
v 0.333076 -1.308319 -0.791813
v 0.333076 -1.116637 0.791813
v 0.333076 1.116637 0.791813
v 0.333076 1.308319 0.791813
v 0.333076 -1.308319 0.791813
v 0.430079 -1.116637 -0.791813
v 0.430079 -1.116637 -0.583626
v 0.430079 -1.116637 0.583626
v 0.430079 1.116637 -0.791813
v 0.430079 1.116637 -0.583626
v 0.430079 1.116637 0.583626
v 0.430079 1.308319 -0.583626
v 0.430079 1.308319 0.583626
v 0.430079 1.308319 -0.791813
v 0.430079 -1.308319 -0.583626
v 0.430079 -1.308319 0.583626
v 0.430079 -1.308319 -0.791813
v 0.430079 -1.116637 0.791813
v 0.430079 1.116637 0.791813
v 0.430079 1.308319 0.791813
v 0.430079 -1.308319 0.791813
v -0.250000 -0.463552 1.000000
v -0.250000 -0.463552 -1.000000
v 0.250000 -0.463552 -1.000000
v 0.250000 -0.463552 1.000000
v -0.250000 -0.463552 0.583626
v -0.250000 -0.463552 -0.583626
v 0.250000 -0.463552 -0.583626
v 0.250000 -0.463552 0.583626
v 0.250000 -0.463552 -0.791813
v -0.250000 -0.463552 -0.791813
v -0.250000 -0.463552 0.791813
v 0.250000 -0.463552 0.791813
v 0.333076 -0.463552 -0.583626
v 0.333076 -0.463552 0.583626
v 0.333076 -0.463552 -0.791813
v 0.333076 -0.463552 0.791813
v 0.177981 -1.116637 -0.583626
v 0.177981 -1.116637 0.583626
v 0.177981 -0.463552 -0.583626
v 0.177981 -0.463552 0.583626
v -0.250000 -1.500000 0.000000
v -0.250000 1.500000 0.000000
v 0.250000 -1.500000 0.000000
v 0.250000 1.500000 0.000000
v 0.250000 -1.116637 0.000000
v 0.250000 1.116637 0.000000
v -0.250000 -1.116637 0.000000
v -0.250000 1.116637 0.000000
v -0.250000 1.308319 0.000000
v 0.250000 1.308319 0.000000
v 0.250000 -1.308319 0.000000
v -0.250000 -1.308319 0.000000
v 0.333076 -1.116637 0.000000
v 0.333076 1.116637 0.000000
v 0.333076 1.308319 0.000000
v 0.333076 -1.308319 0.000000
v 0.430079 -1.116637 0.000000
v 0.430079 1.116637 0.000000
v 0.430079 1.308319 0.000000
v 0.430079 -1.308319 0.000000
v 0.250000 -0.463552 0.000000
v -0.250000 -0.463552 0.000000
v 0.177981 -1.116637 0.000000
v 0.177981 -0.463552 0.000000
vn -1.0000 -0.0000 -0.0000
vn -0.0000 -0.0000 -1.0000
vn 1.0000 -0.0000 -0.0000
vn -0.0000 -0.0000 1.0000
vn -0.0000 -1.0000 -0.0000
vn -0.0000 1.0000 -0.0000
vt 0.583333 0.208333
vt 0.625000 0.208333
vt 0.625000 0.250000
vt 0.583333 0.250000
vt 0.625000 0.500000
vt 0.583333 0.500000
vt 0.583333 0.708333
vt 0.625000 0.708333
vt 0.625000 0.750000
vt 0.583333 0.750000
vt 0.625000 1.000000
vt 0.583333 1.000000
vt 0.125000 0.708333
vt 0.375000 0.708333
vt 0.375000 0.750000
vt 0.125000 0.750000
vt 0.875000 0.708333
vt 0.875000 0.750000
vt 0.416667 0.750000
vt 0.458333 0.750000
vt 0.458333 1.000000
vt 0.416667 1.000000
vt 0.482703 0.750000
vt 0.541667 0.750000
vt 0.541667 1.000000
vt 0.482703 1.000000
vt 0.416667 0.708333
vt 0.458333 0.708333
vt 0.482703 0.708333
vt 0.541667 0.708333
vt 0.416667 0.250000
vt 0.458333 0.250000
vt 0.458333 0.500000
vt 0.416667 0.500000
vt 0.482703 0.250000
vt 0.541667 0.250000
vt 0.541667 0.500000
vt 0.482703 0.500000
vt 0.416667 0.208333
vt 0.458333 0.208333
vt 0.482703 0.208333
vt 0.541667 0.208333
vt 0.482703 0.041667
vt 0.541667 0.041667
vt 0.541667 0.083333
vt 0.482703 0.083333
vt 0.482703 0.125000
vt 0.541667 0.125000
vt 0.541667 0.166667
vt 0.482703 0.166667
vt 0.416667 0.041667
vt 0.458333 0.041667
vt 0.458333 0.083333
vt 0.416667 0.083333
vt 0.416667 0.125000
vt 0.458333 0.125000
vt 0.458333 0.166667
vt 0.416667 0.166667
vt 0.583333 0.541667
vt 0.583333 0.583333
vt 0.482703 0.625000
vt 0.541667 0.625000
vt 0.541667 0.666667
vt 0.482703 0.666667
vt 0.416667 0.583333
vt 0.416667 0.541667
vt 0.625000 0.541667
vt 0.875000 0.541667
vt 0.875000 0.583333
vt 0.625000 0.583333
vt 0.625000 0.625000
vt 0.875000 0.625000
vt 0.875000 0.666667
vt 0.625000 0.666667
vt 0.125000 0.541667
vt 0.375000 0.541667
vt 0.375000 0.583333
vt 0.125000 0.583333
vt 0.125000 0.625000
vt 0.375000 0.625000
vt 0.375000 0.666667
vt 0.125000 0.666667
vt 0.583333 0.625000
vt 0.583333 0.666667
vt 0.583333 0.041667
vt 0.625000 0.041667
vt 0.625000 0.083333
vt 0.583333 0.083333
vt 0.583333 0.125000
vt 0.625000 0.125000
vt 0.625000 0.166667
vt 0.583333 0.166667
vt 0.482703 0.583333
vt 0.458333 0.583333
vt 0.541667 0.541667
vt 0.416667 0.625000
vt 0.416667 0.666667
vt 0.375000 0.125000
vt 0.375000 0.166667
vt 0.375000 0.041667
vt 0.375000 0.083333
vt 0.375000 0.208333
vt 0.375000 0.250000
vt 0.375000 0.500000
vt 0.375000 1.000000
vt 0.125000 0.500000
vt 0.875000 0.500000
vt 0.458333 0.541667
vt 0.482703 0.541667
vt 0.375000 0.000000
vt 0.416667 0.000000
vt 0.541667 0.000000
vt 0.583333 0.000000
vt 0.625000 0.000000
vt 0.458333 0.000000
vt 0.482703 0.000000
vt 0.541667 0.583333
vt 0.458333 0.625000
vt 0.458333 0.666667
s 0
f 58/1/1 49/2/1 4/3/1 34/4/1
f 34/4/2 4/3/2 8/5/2 35/6/2
f 70/7/3 62/8/3 6/9/3 36/10/3
f 36/10/4 6/9/4 2/11/4 33/12/4
f 61/13/5 66/14/5 5/15/5 1/16/5
f 62/8/6 65/17/6 2/18/6 6/9/6
f 43/19/4 16/20/4 9/21/4 44/22/4
f 108/23/4 15/24/4 10/25/4 105/26/4
f 72/27/3 63/28/3 16/20/3 43/19/3
f 116/29/3 64/30/3 15/24/3 108/23/3
f 41/31/2 12/32/2 14/33/2 42/34/2
f 106/35/2 11/36/2 13/37/2 107/38/2
f 60/39/1 51/40/1 12/32/1 41/31/1
f 114/41/1 52/42/1 11/36/1 106/35/1
f 115/43/1 68/44/1 31/45/1 109/46/1
f 146/47/1 132/48/1 32/49/1 110/50/1
f 71/51/1 67/52/1 29/53/1 45/54/1
f 136/55/1 131/56/1 30/57/1 46/58/1
f 57/59/6 37/60/6 79/60/6 81/59/6
f 145/61/3 130/62/3 28/63/3 112/64/3
f 70/7/4 64/30/4 86/30/4 87/7/4
f 47/65/5 59/66/5 84/66/5 82/65/5
f 54/67/6 49/68/6 20/69/6 23/70/6
f 128/71/6 126/72/6 19/73/6 24/74/6
f 53/75/5 50/76/5 22/77/5 17/78/5
f 125/79/5 127/80/5 21/81/5 18/82/5
f 57/59/3 54/67/3 23/70/3 37/60/3
f 134/83/3 128/71/3 24/74/3 38/84/3
f 69/85/1 65/86/1 19/87/1 39/88/1
f 133/89/1 126/90/1 20/91/1 40/92/1
f 132/48/1 133/89/1 40/92/1 32/49/1
f 68/44/1 69/85/1 39/88/1 31/45/1
f 111/93/4 25/94/4 74/94/4 117/93/4
f 56/95/2 57/59/2 81/59/2 76/95/2
f 15/24/4 36/10/4 33/12/4 10/25/4
f 64/30/3 70/7/3 36/10/3 15/24/3
f 11/36/2 34/4/2 35/6/2 13/37/2
f 52/42/1 58/1/1 34/4/1 11/36/1
f 127/80/3 135/96/3 48/97/3 21/81/3
f 50/76/3 59/66/3 47/65/3 22/77/3
f 125/98/1 136/55/1 46/58/1 17/99/1
f 61/100/1 71/51/1 45/54/1 18/101/1
f 53/102/1 60/39/1 41/31/1 3/103/1
f 3/103/2 41/31/2 42/34/2 7/104/2
f 66/14/3 72/27/3 43/19/3 5/15/3
f 5/15/4 43/19/4 44/22/4 1/105/4
f 17/99/1 46/58/1 60/39/1 53/102/1
f 7/104/3 42/34/3 59/66/3 50/76/3
f 32/49/1 40/92/1 58/1/1 52/42/1
f 13/37/3 35/6/3 57/59/3 56/95/3
f 35/6/3 8/5/3 54/67/3 57/59/3
f 3/106/5 7/104/5 50/76/5 53/75/5
f 8/5/6 4/107/6 49/68/6 54/67/6
f 42/34/3 14/33/3 55/108/3 59/66/3
f 107/38/3 13/37/3 56/95/3 113/109/3
f 110/50/1 32/49/1 52/42/1 114/41/1
f 46/58/1 30/57/1 51/40/1 60/39/1
f 40/92/1 20/91/1 49/2/1 58/1/1
f 21/81/3 48/97/3 72/27/3 66/14/3
f 1/110/1 44/111/1 71/51/1 61/100/1
f 134/83/6 38/84/6 80/84/6 139/83/6
f 10/112/1 33/113/1 69/85/1 68/44/1
f 33/113/1 2/114/1 65/86/1 69/85/1
f 44/111/1 9/115/1 67/52/1 71/51/1
f 105/116/1 10/112/1 68/44/1 115/43/1
f 63/28/4 72/27/4 88/27/4 85/28/4
f 135/96/5 47/65/5 82/65/5 140/96/5
f 24/74/6 19/73/6 65/17/6 62/8/6
f 18/82/5 21/81/5 66/14/5 61/13/5
f 38/84/3 24/74/3 62/8/3 70/7/3
f 119/109/3 76/95/3 77/117/3 117/93/3
f 82/65/5 84/66/5 100/66/5 98/65/5
f 88/27/5 83/97/5 99/97/5 104/27/5
f 140/96/5 82/65/5 98/65/5 144/96/5
f 80/84/6 87/7/6 103/7/6 96/84/6
f 86/30/5 78/63/5 94/63/5 102/30/5
f 118/64/3 78/63/3 86/30/3 120/29/3
f 138/62/5 77/117/5 93/117/5 142/62/5
f 112/64/2 28/63/2 78/63/2 118/64/2
f 38/84/6 70/7/6 87/7/6 80/84/6
f 129/118/6 26/119/6 75/119/6 137/118/6
f 59/66/2 55/108/2 73/108/2 84/66/2
f 113/109/2 56/95/2 76/95/2 119/109/2
f 72/27/5 48/97/5 83/97/5 88/27/5
f 116/29/4 63/28/4 85/28/4 120/29/4
f 130/62/5 27/117/5 77/117/5 138/62/5
f 100/66/3 89/108/3 90/94/3 98/65/3
f 144/96/3 141/118/3 91/119/3 99/97/3
f 142/62/3 143/83/3 96/84/3 94/63/3
f 92/95/3 97/59/3 95/60/3 93/117/3
f 94/63/3 96/84/3 103/7/3 102/30/3
f 99/97/3 91/119/3 101/28/3 104/27/3
f 87/7/4 86/30/4 102/30/4 103/7/4
f 76/95/2 81/59/2 97/59/2 92/95/2
f 73/108/6 74/94/6 90/94/6 89/108/6
f 84/66/2 73/108/2 89/108/2 100/66/2
f 139/83/6 80/84/6 96/84/6 143/83/6
f 85/28/4 88/27/4 104/27/4 101/28/4
f 137/118/6 75/119/6 91/119/6 141/118/6
f 81/59/6 79/60/6 95/60/6 97/59/6
f 77/117/5 76/95/5 92/95/5 93/117/5
f 75/119/6 85/28/6 101/28/6 91/119/6
f 64/30/4 116/29/4 120/29/4 86/30/4
f 55/108/2 113/109/2 119/109/2 73/108/2
f 26/119/2 112/64/2 118/64/2 75/119/2
f 75/119/3 118/64/3 120/29/3 85/28/3
f 73/108/3 119/109/3 117/93/3 74/94/3
f 9/115/1 105/116/1 115/43/1 67/52/1
f 30/57/1 110/50/1 114/41/1 51/40/1
f 14/33/3 107/38/3 113/109/3 55/108/3
f 27/117/4 111/93/4 117/93/4 77/117/4
f 112/64/2 26/119/2 122/119/2 124/64/2
f 131/56/1 146/47/1 110/50/1 30/57/1
f 67/52/1 115/43/1 109/46/1 29/53/1
f 51/40/1 114/41/1 106/35/1 12/32/1
f 12/32/2 106/35/2 107/38/2 14/33/2
f 63/28/3 116/29/3 108/23/3 16/20/3
f 16/20/4 108/23/4 105/26/4 9/21/4
f 147/118/3 148/61/3 124/64/3 122/119/3
f 129/118/6 25/94/6 121/94/6 147/118/6
f 25/94/4 111/93/4 123/93/4 121/94/4
f 145/61/5 112/64/5 124/64/5 148/61/5
f 111/93/5 145/61/5 148/61/5 123/93/5
f 26/119/6 129/118/6 147/118/6 122/119/6
f 121/94/3 123/93/3 148/61/3 147/118/3
f 29/53/1 109/46/1 146/47/1 131/56/1
f 74/94/6 137/118/6 141/118/6 90/94/6
f 79/60/6 139/83/6 143/83/6 95/60/6
f 93/117/3 95/60/3 143/83/3 142/62/3
f 98/65/3 90/94/3 141/118/3 144/96/3
f 28/63/5 130/62/5 138/62/5 78/63/5
f 25/94/6 129/118/6 137/118/6 74/94/6
f 78/63/5 138/62/5 142/62/5 94/63/5
f 83/97/5 140/96/5 144/96/5 99/97/5
f 48/97/5 135/96/5 140/96/5 83/97/5
f 37/60/6 134/83/6 139/83/6 79/60/6
f 18/101/1 45/54/1 136/55/1 125/98/1
f 22/77/3 47/65/3 135/96/3 127/80/3
f 31/45/1 39/88/1 133/89/1 132/48/1
f 39/88/1 19/87/1 126/90/1 133/89/1
f 37/60/3 23/70/3 128/71/3 134/83/3
f 17/78/5 22/77/5 127/80/5 125/79/5
f 23/70/6 20/69/6 126/72/6 128/71/6
f 111/93/3 27/117/3 130/62/3 145/61/3
f 45/54/1 29/53/1 131/56/1 136/55/1
f 109/46/1 31/45/1 132/48/1 146/47/1
o wall
v -0.250000 -1.500000 3.000000
v -0.250000 1.500000 3.000000
v -0.250000 -1.500000 1.000000
v -0.250000 1.500000 1.000000
v 0.250000 -1.500000 3.000000
v 0.250000 1.500000 3.000000
v 0.250000 -1.500000 1.000000
v 0.250000 1.500000 1.000000
v -0.250000 -1.500000 2.000000
v -0.250000 1.500000 2.000000
v 0.250000 -1.500000 2.000000
v 0.250000 1.500000 2.000000
vn -1.0000 -0.0000 -0.0000
vn -0.0000 -0.0000 -1.0000
vn 1.0000 -0.0000 -0.0000
vn -0.0000 -0.0000 1.0000
vn -0.0000 -1.0000 -0.0000
vn -0.0000 1.0000 -0.0000
vt 0.375000 0.125000
vt 0.625000 0.125000
vt 0.625000 0.250000
vt 0.375000 0.250000
vt 0.625000 0.500000
vt 0.375000 0.500000
vt 0.375000 0.625000
vt 0.625000 0.625000
vt 0.625000 0.750000
vt 0.375000 0.750000
vt 0.625000 1.000000
vt 0.375000 1.000000
vt 0.125000 0.625000
vt 0.125000 0.750000
vt 0.875000 0.625000
vt 0.875000 0.750000
vt 0.875000 0.500000
vt 0.125000 0.500000
vt 0.375000 0.000000
vt 0.625000 0.000000
s 0
f 157/120/7 158/121/7 152/122/7 151/123/7
f 151/123/8 152/122/8 156/124/8 155/125/8
f 159/126/9 160/127/9 154/128/9 153/129/9
f 153/129/10 154/128/10 150/130/10 149/131/10
f 157/132/11 159/126/11 153/129/11 149/133/11
f 160/127/12 158/134/12 150/135/12 154/128/12
f 156/124/12 152/136/12 158/134/12 160/127/12
f 151/137/11 155/125/11 159/126/11 157/132/11
f 155/125/9 156/124/9 160/127/9 159/126/9
f 149/138/7 150/139/7 158/121/7 157/120/7
o door
v -0.250000 -1.500000 -1.000000
v -0.250000 1.500000 -1.000000
v -0.250000 -1.500000 -3.000000
v -0.250000 1.500000 -3.000000
v 0.250000 -1.500000 -1.000000
v 0.250000 1.500000 -1.000000
v 0.250000 -1.500000 -3.000000
v 0.250000 1.500000 -3.000000
v 0.250000 1.500000 -2.750000
v 0.250000 0.500000 -2.750000
v 0.250000 -1.500000 -2.750000
v -0.250000 1.500000 -2.750000
v -0.250000 0.500000 -1.000000
v -0.250000 0.500000 -3.000000
v 0.250000 0.500000 -3.000000
v 0.250000 0.500000 -1.000000
v -0.250000 -1.500000 -2.750000
v -0.250000 0.500000 -2.750000
v -0.250000 0.500000 -2.500000
v -0.250000 0.500000 -1.500000
v 0.250000 0.384578 -2.338352
v 0.250000 0.384578 -1.569196
v 0.250000 1.500000 -1.500000
v 0.250000 1.500000 -2.500000
v 0.250000 -1.500000 -1.500000
v 0.250000 -1.500000 -2.500000
v -0.250000 1.500000 -2.500000
v -0.250000 1.500000 -1.500000
v -0.250000 -1.500000 -1.500000
v -0.250000 -1.500000 -2.500000
v -0.250000 0.500000 -1.250000
v -0.250000 -1.500000 -1.250000
v -0.250000 1.500000 -1.250000
v 0.250000 1.500000 -1.250000
v 0.250000 0.500000 -1.250000
v 0.250000 -1.500000 -1.250000
v -0.250000 0.694737 -1.000000
v 0.250000 0.694737 -2.750000
v -0.250000 0.694737 -3.000000
v 0.250000 0.694737 -3.000000
v 0.250000 0.694737 -1.000000
v -0.250000 0.694737 -2.750000
v -0.250000 0.694737 -2.500000
v -0.250000 0.694737 -1.500000
v 0.250000 0.694737 -1.500000
v 0.250000 0.694737 -2.500000
v 0.250000 0.694737 -1.250000
v -0.250000 0.694737 -1.250000
v 0.325777 -1.500000 -2.500000
v 0.325777 -1.500000 -2.750000
v 0.325777 0.500000 -2.750000
v 0.325777 0.694737 -2.750000
v 0.325777 0.500000 -2.500000
v 0.325777 0.500000 -1.500000
v 0.325777 -1.500000 -1.500000
v 0.325777 0.694737 -1.500000
v 0.325777 0.500000 -1.250000
v 0.325777 -1.500000 -1.250000
v 0.325777 0.694737 -1.250000
v 0.325777 0.694737 -2.500000
v 0.412804 0.694737 -2.750000
v 0.412804 0.500000 -2.750000
v 0.412804 0.500000 -2.500000
v 0.412804 0.500000 -1.500000
v 0.412804 0.694737 -1.500000
v 0.412804 0.500000 -1.250000
v 0.412804 0.694737 -1.250000
v 0.412804 0.694737 -2.500000
v -0.250000 -0.320765 -3.000000
v 0.250000 -0.320765 -3.000000
v 0.250000 -0.320765 -1.000000
v 0.250000 -0.320765 -2.750000
v -0.250000 -0.320765 -1.000000
v -0.250000 -0.320765 -2.750000
v 0.250000 -0.205343 -1.569196
v 0.250000 -0.205343 -2.338352
v -0.250000 -0.320765 -2.500000
v -0.250000 -0.320765 -1.500000
v 0.250000 -0.320765 -1.250000
v -0.250000 -0.320765 -1.250000
v 0.325777 -0.320765 -2.750000
v 0.325777 -0.320765 -1.500000
v 0.325777 -0.320765 -2.500000
v 0.325777 -0.320765 -1.250000
v 0.250000 0.500000 -2.500000
v 0.250000 0.500000 -1.500000
v 0.250000 -0.320765 -2.500000
v 0.250000 -0.320765 -1.500000
v 0.175773 0.384578 -2.338352
v 0.175773 0.384578 -1.569196
v 0.175773 -0.205343 -2.338352
v 0.175773 -0.205343 -1.569196
v -0.250000 1.500000 -2.000000
v 0.250000 1.500000 -2.000000
v -0.250000 0.500000 -2.000000
v 0.250000 0.500000 -2.000000
v 0.250000 -1.500000 -2.000000
v -0.250000 -1.500000 -2.000000
v 0.250000 0.694737 -2.000000
v -0.250000 0.694737 -2.000000
v 0.325777 0.500000 -2.000000
v 0.325777 0.694737 -2.000000
v 0.412804 0.500000 -2.000000
v 0.412804 0.694737 -2.000000
v -0.250000 -0.320765 -2.000000
v 0.250000 -0.320765 -2.000000
v 0.250000 0.384578 -1.953774
v 0.250000 -0.205343 -1.953774
v 0.175773 0.384578 -1.953774
v 0.175773 -0.205343 -1.953774
vn -0.0000 1.0000 -0.0000
vn -0.0000 -0.0000 -1.0000
vn -1.0000 -0.0000 -0.0000
vn -0.0000 -0.0000 1.0000
vn 1.0000 -0.0000 -0.0000
vn -0.0000 -1.0000 -0.0000
vt 0.875000 0.687500
vt 0.875000 0.718750
vt 0.625000 0.718750
vt 0.625000 0.687500
vt 0.524342 0.250000
vt 0.625000 0.250000
vt 0.625000 0.500000
vt 0.524342 0.500000
vt 0.524342 0.187500
vt 0.524342 0.218750
vt 0.500000 0.218750
vt 0.500000 0.187500
vt 0.524342 0.750000
vt 0.625000 0.750000
vt 0.625000 1.000000
vt 0.524342 1.000000
vt 0.875000 0.500000
vt 0.875000 0.531250
vt 0.625000 0.531250
vt 0.448702 0.500000
vt 0.500000 0.500000
vt 0.500000 0.531250
vt 0.448702 0.531250
vt 0.448702 0.000000
vt 0.448702 0.031250
vt 0.375000 0.031250
vt 0.375000 0.000000
vt 0.524342 0.000000
vt 0.524342 0.031250
vt 0.500000 0.031250
vt 0.500000 0.000000
vt 0.524342 0.531250
vt 0.524342 0.562500
vt 0.500000 0.625000
vt 0.500000 0.562500
vt 0.375000 0.687500
vt 0.375000 0.718750
vt 0.125000 0.718750
vt 0.125000 0.687500
vt 0.448702 0.187500
vt 0.448702 0.218750
vt 0.375000 0.218750
vt 0.375000 0.187500
vt 0.448702 0.750000
vt 0.500000 0.750000
vt 0.500000 1.000000
vt 0.448702 1.000000
vt 0.375000 0.500000
vt 0.375000 0.531250
vt 0.125000 0.531250
vt 0.125000 0.500000
vt 0.448702 0.250000
vt 0.500000 0.250000
vt 0.875000 0.625000
vt 0.625000 0.625000
vt 0.625000 0.562500
vt 0.875000 0.562500
vt 0.524342 0.125000
vt 0.500000 0.125000
vt 0.500000 0.062500
vt 0.524342 0.062500
vt 0.448702 0.625000
vt 0.375000 0.625000
vt 0.375000 0.562500
vt 0.448702 0.562500
vt 0.125000 0.625000
vt 0.125000 0.562500
vt 0.448702 0.125000
vt 0.375000 0.125000
vt 0.375000 0.062500
vt 0.448702 0.062500
vt 0.375000 0.250000
vt 0.524342 0.718750
vt 0.500000 0.718750
vt 0.448702 0.718750
vt 0.875000 0.750000
vt 0.375000 0.750000
vt 0.125000 0.750000
vt 0.625000 0.218750
vt 0.625000 0.031250
vt 0.625000 0.062500
vt 0.524342 0.625000
vt 0.625000 0.125000
vt 0.524342 0.687500
vt 0.625000 0.000000
vt 0.625000 0.187500
vt 0.500000 0.687500
vt 0.448702 0.687500
vt 0.448702 0.718750
vt 0.448702 0.531250
vt 0.492786 0.673072
vt 0.455916 0.673072
vt 0.375000 1.000000
vt 0.492786 0.625000
vt 0.492786 0.576928
vt 0.455916 0.576928
vt 0.455916 0.625000
s 0
f 188/140/13 193/141/13 194/142/13 183/143/13
f 199/144/14 164/145/14 168/146/14 200/147/14
f 203/148/15 202/149/15 178/150/15 179/151/15
f 201/152/16 166/153/16 162/154/16 197/155/16
f 164/156/13 172/157/13 169/158/13 168/146/13
f 230/159/17 175/160/17 170/161/17 232/162/17
f 233/163/15 240/164/15 192/165/15 161/166/15
f 197/167/15 208/168/15 191/169/15 173/170/15
f 198/171/13 206/172/13 220/172/13 212/171/13
f 256/173/18 245/174/18 213/174/18 261/173/18
f 185/175/18 196/176/18 192/177/18 189/178/18
f 237/179/15 234/180/15 177/181/15 190/182/15
f 200/147/17 198/171/17 170/161/17 175/160/17
f 231/183/16 176/184/16 173/185/16 233/186/16
f 167/187/18 171/188/18 177/189/18 163/190/18
f 229/191/14 174/192/14 175/160/14 230/159/14
f 253/193/13 254/194/13 184/195/13 187/196/13
f 260/197/15 255/198/15 180/199/15 204/200/15
f 266/201/17 257/202/17 186/203/17 247/204/17
f 257/202/18 258/205/18 190/206/18 186/203/18
f 170/161/14 198/171/14 212/171/14 211/161/14
f 265/207/15 258/208/15 189/209/15 238/210/15
f 240/164/15 238/210/15 189/209/15 192/165/15
f 234/180/15 229/191/15 163/211/15 177/181/15
f 208/168/15 204/200/15 180/199/15 191/169/15
f 202/149/15 199/144/15 174/192/15 178/150/15
f 247/204/16 186/203/16 209/203/16 243/204/16
f 207/212/17 201/152/17 176/184/17 195/213/17
f 239/214/17 195/213/17 176/184/17 231/183/17
f 207/212/16 195/213/16 217/213/16 219/212/16
f 172/157/13 187/196/13 184/195/13 169/158/13
f 193/141/13 162/215/13 166/153/13 194/142/13
f 196/176/18 165/216/18 161/217/18 192/177/18
f 171/188/18 186/203/18 190/206/18 177/189/18
f 169/158/17 184/195/17 206/172/17 198/171/17
f 194/142/17 166/153/17 201/152/17 207/212/17
f 172/218/15 164/145/15 199/144/15 202/149/15
f 193/219/15 188/220/15 204/200/15 208/168/15
f 254/194/17 259/221/17 206/172/17 184/195/17
f 253/222/15 260/197/15 204/200/15 188/220/15
f 168/146/17 169/158/17 198/171/17 200/147/17
f 183/143/17 194/142/17 207/212/17 205/223/17
f 162/224/15 193/219/15 208/168/15 197/167/15
f 176/184/16 201/152/16 197/155/16 173/185/16
f 187/225/15 172/218/15 202/149/15 203/148/15
f 174/192/14 199/144/14 200/147/14 175/160/14
f 217/213/18 214/226/18 224/226/18 226/213/18
f 242/227/17 214/226/17 217/213/17 244/228/17
f 261/173/18 213/174/18 223/174/18 263/173/18
f 241/229/17 211/161/17 213/174/17 243/204/17
f 262/221/13 216/223/13 225/223/13 264/221/13
f 186/203/18 171/188/18 210/188/18 209/203/18
f 205/223/13 207/212/13 219/212/13 216/223/13
f 196/176/18 185/175/18 215/175/18 218/176/18
f 259/221/13 205/223/13 216/223/13 262/221/13
f 248/227/14 246/226/14 214/226/14 242/227/14
f 239/214/16 196/176/16 218/176/16 244/228/16
f 232/162/14 170/161/14 211/161/14 241/229/14
f 225/223/17 227/212/17 226/213/17 224/226/17
f 264/221/17 263/173/17 223/174/17 228/172/17
f 221/171/17 228/172/17 223/174/17 222/161/17
f 216/223/13 219/212/13 227/212/13 225/223/13
f 212/171/13 220/172/13 228/172/13 221/171/13
f 211/161/14 212/171/14 221/171/14 222/161/14
f 219/212/16 217/213/16 226/213/16 227/212/16
f 213/174/18 211/161/18 222/161/18 223/174/18
f 171/188/14 232/162/14 241/229/14 210/188/14
f 195/213/16 239/214/16 244/228/16 217/213/16
f 185/175/14 248/227/14 242/227/14 215/175/14
f 210/188/17 241/229/17 243/204/17 209/203/17
f 215/175/17 242/227/17 244/228/17 218/176/17
f 196/176/17 239/214/17 231/183/17 165/216/17
f 245/174/16 247/204/16 243/204/16 213/174/16
f 178/150/15 174/192/15 229/191/15 234/180/15
f 191/169/15 180/199/15 238/210/15 240/164/15
f 255/198/15 265/207/15 238/210/15 180/199/15
f 182/230/14 235/231/14 252/231/14 250/230/14
f 163/211/14 229/191/14 230/159/14 167/187/14
f 165/216/16 231/183/16 233/186/16 161/232/16
f 179/151/15 178/150/15 234/180/15 237/179/15
f 173/170/15 191/169/15 240/164/15 233/163/15
f 167/187/17 230/159/17 232/162/17 171/188/17
f 267/233/17 181/234/17 245/174/17 256/173/17
f 181/234/17 236/235/17 247/204/17 245/174/17
f 235/231/17 182/230/17 246/226/17 248/227/17
f 268/236/17 235/231/17 248/227/17 266/201/17
f 269/233/17 270/236/17 251/235/17 249/234/17
f 267/233/18 182/230/18 250/230/18 269/233/18
f 268/236/13 236/235/13 251/235/13 270/236/13
f 236/235/16 181/234/16 249/234/16 251/235/16
f 235/231/13 268/236/13 270/236/13 252/231/13
f 181/234/18 267/233/18 269/233/18 249/234/18
f 250/230/17 252/231/17 270/236/17 269/233/17
f 236/235/17 268/236/17 266/201/17 247/204/17
f 182/230/17 267/233/17 256/173/17 246/226/17
f 179/151/15 237/179/15 265/207/15 255/198/15
f 225/223/17 224/226/17 263/173/17 264/221/17
f 206/172/13 259/221/13 262/221/13 220/172/13
f 220/172/13 262/221/13 264/221/13 228/172/13
f 214/226/18 261/173/18 263/173/18 224/226/18
f 187/225/15 203/148/15 260/197/15 253/222/15
f 183/143/17 205/223/17 259/221/17 254/194/17
f 237/179/15 190/182/15 258/208/15 265/207/15
f 185/175/18 189/178/18 258/205/18 257/202/18
f 248/227/17 185/175/17 257/202/17 266/201/17
f 203/148/15 179/151/15 255/198/15 260/197/15
f 188/140/13 183/143/13 254/194/13 253/193/13
f 246/226/18 256/173/18 261/173/18 214/226/18
o roof
v 0.527741 2.289586 3.000000
v -2.070335 3.505262 3.000000
v 0.527741 2.289586 1.000000
v -2.070335 3.505262 1.000000
v 0.777741 2.513952 3.000000
v -1.820335 3.729629 3.000000
v 0.777741 2.513952 1.000000
v -1.820335 3.729629 1.000000
v -0.250000 1.500000 3.000000
v -0.250000 2.500000 3.000000
v -0.250000 1.500000 1.000000
v -0.250000 2.500000 1.000000
v 0.250000 1.500000 3.000000
v 0.250000 2.500000 3.000000
v 0.250000 1.500000 1.000000
v 0.250000 2.500000 1.000000
v 0.527741 2.289586 2.000000
v -2.070335 3.505262 2.000000
v 0.777741 2.513952 2.000000
v -1.820335 3.729629 2.000000
v -0.250000 1.500000 2.000000
v -0.250000 2.500000 2.000000
v 0.250000 1.500000 2.000000
v 0.250000 2.500000 2.000000
vn -0.4238 -0.9057 -0.0000
vn -0.0000 -0.0000 -1.0000
vn 0.4238 0.9057 -0.0000
vn -0.0000 -0.0000 1.0000
vn 0.6679 -0.7442 -0.0000
vn -0.6679 0.7442 -0.0000
vn -1.0000 -0.0000 -0.0000
vn 1.0000 -0.0000 -0.0000
vn -0.0000 -1.0000 -0.0000
vn -0.0000 1.0000 -0.0000
vt 0.375000 0.125000
vt 0.625000 0.125000
vt 0.625000 0.250000
vt 0.375000 0.250000
vt 0.625000 0.500000
vt 0.375000 0.500000
vt 0.375000 0.625000
vt 0.625000 0.625000
vt 0.625000 0.750000
vt 0.375000 0.750000
vt 0.625000 1.000000
vt 0.375000 1.000000
vt 0.125000 0.625000
vt 0.125000 0.750000
vt 0.875000 0.625000
vt 0.875000 0.750000
vt 0.875000 0.500000
vt 0.125000 0.500000
vt 0.375000 0.000000
vt 0.625000 0.000000
s 0
f 287/237/19 288/238/19 274/239/19 273/240/19
f 273/240/20 274/239/20 278/241/20 277/242/20
f 289/243/21 290/244/21 276/245/21 275/246/21
f 275/246/22 276/245/22 272/247/22 271/248/22
f 287/249/23 289/243/23 275/246/23 271/250/23
f 290/244/24 288/251/24 272/252/24 276/245/24
f 291/237/25 292/238/25 282/239/25 281/240/25
f 281/240/20 282/239/20 286/241/20 285/242/20
f 293/243/26 294/244/26 284/245/26 283/246/26
f 283/246/22 284/245/22 280/247/22 279/248/22
f 291/249/27 293/243/27 283/246/27 279/250/27
f 294/244/28 292/251/28 280/252/28 284/245/28
f 278/241/24 274/253/24 288/251/24 290/244/24
f 273/254/23 277/242/23 289/243/23 287/249/23
f 277/242/21 278/241/21 290/244/21 289/243/21
f 271/255/19 272/256/19 288/238/19 287/237/19
f 286/241/28 282/253/28 292/251/28 294/244/28
f 281/254/27 285/242/27 293/243/27 291/249/27
f 285/242/26 286/241/26 294/244/26 293/243/26
f 279/255/25 280/256/25 292/238/25 291/237/25
o roofWindow
v 0.527741 2.289586 1.000000
v -2.070335 3.505262 1.000000
v 0.527741 2.289586 -1.000000
v -2.070335 3.505262 -1.000000
v 0.777741 2.513952 1.000000
v -1.820335 3.729629 1.000000
v 0.777741 2.513952 -1.000000
v -1.820335 3.729629 -1.000000
v -0.250000 1.500000 1.000000
v -0.250000 2.500000 1.000000
v -0.250000 1.500000 -1.000000
v -0.250000 2.500000 -1.000000
v 0.250000 1.500000 1.000000
v 0.250000 2.500000 1.000000
v 0.250000 1.500000 -1.000000
v 0.250000 2.500000 -1.000000
v -1.820335 2.500000 0.500000
v -1.820335 3.162372 0.662372
v -1.820335 2.500000 -0.500000
v 0.250000 3.162372 0.662372
v 0.250000 2.760627 0.266663
v 0.250000 3.162372 -0.662372
v 0.250000 2.760627 -0.266663
v 0.250000 3.729629 0.000000
v -1.820335 3.000000 0.500000
v -1.820335 3.500000 -0.000000
v -1.820335 3.729629 -0.000000
v -1.820335 3.000000 -0.500000
v 0.250000 3.160769 0.000000
v 0.250000 3.160769 0.266663
v 0.250000 3.160769 -0.266663
v -1.820335 3.162372 -0.662372
v 0.533075 3.162372 0.662372
v 0.533075 3.000000 0.500000
v 0.533075 3.500000 0.000000
v 0.533075 3.000000 -0.500000
v 0.533075 3.729629 0.000000
v 0.533075 3.162372 -0.662372
v 0.250000 2.500000 0.500000
v 0.250000 2.500000 -0.500000
v 0.250000 3.500000 0.000000
v 0.250000 3.000000 -0.500000
v 0.250000 3.000000 0.500000
v 0.115347 2.760627 0.266663
v 0.115347 2.760627 -0.266663
v 0.115347 3.160769 0.000000
v 0.115347 3.160769 -0.266663
v 0.115347 3.160769 0.266663
v -0.250000 1.500000 0.000000
v -0.250000 2.500000 0.000000
v 0.250000 1.500000 0.000000
v 0.250000 2.500000 0.000000
v 0.527741 2.289586 0.000000
v -2.070335 3.505262 0.000000
v 0.777741 2.513952 0.000000
v -1.820335 3.729629 0.000000
vn -0.4238 -0.9057 -0.0000
vn -0.0000 -0.0000 -1.0000
vn 0.4238 0.9057 -0.0000
vn -0.0000 -0.0000 1.0000
vn 0.6679 -0.7442 -0.0000
vn -0.6679 0.7442 -0.0000
vn -1.0000 -0.0000 -0.0000
vn 1.0000 -0.0000 -0.0000
vn -0.0000 -1.0000 -0.0000
vn -0.0000 1.0000 -0.0000
vn -0.0000 0.7595 0.6505
vn -0.0000 -0.7071 -0.7071
vn -0.0000 -0.7071 0.7071
vn -0.0000 0.7595 -0.6505
vt 0.375000 0.125000
vt 0.625000 0.125000
vt 0.625000 0.250000
vt 0.375000 0.250000
vt 0.625000 0.500000
vt 0.375000 0.500000
vt 0.375000 0.625000
vt 0.625000 0.625000
vt 0.625000 0.750000
vt 0.375000 0.750000
vt 0.625000 1.000000
vt 0.375000 1.000000
vt 0.125000 0.625000
vt 0.125000 0.750000
vt 0.875000 0.625000
vt 0.875000 0.750000
vt 0.500000 0.250000
vt 0.625000 0.187500
vt 0.625000 0.666667
vt 0.500000 1.000000
vt 0.500000 0.750000
vt 0.500000 0.500000
vt 0.125000 0.500000
vt 0.500000 0.000000
vt 0.375000 0.000000
vt 0.625000 0.583333
vt 0.486877 0.535832
vt 0.580195 0.654234
vt 0.406682 0.532857
vt 0.406682 0.719493
vt 0.486877 0.722468
vt 0.875000 0.500000
vt 0.625000 0.000000
s 0
f 347/257/29 348/258/29 298/259/29 297/260/29
f 297/260/30 298/259/30 302/261/30 301/262/30
f 349/263/31 350/264/31 300/265/31 299/266/31
f 299/266/32 300/265/32 296/267/32 295/268/32
f 347/269/33 349/263/33 299/266/33 295/270/33
f 350/264/34 348/271/34 296/272/34 300/265/34
f 343/257/35 344/258/35 306/259/35 305/260/35
f 305/260/30 306/259/30 310/261/30 309/262/30
f 345/263/36 346/264/36 308/265/36 307/266/36
f 307/266/32 308/265/32 304/267/32 303/268/32
f 343/269/37 345/263/37 307/266/37 303/270/37
f 346/264/38 344/271/38 304/272/38 308/265/38
f 322/273/35 320/274/35 321/274/35 326/273/35
f 318/275/39 321/267/39 312/276/39 314/277/39
f 336/278/40 316/278/40 332/278/40 330/278/40
f 336/278/40 322/273/40 326/273/40 316/278/40
f 313/279/37 334/262/37 333/266/37 311/270/37
f 319/276/41 337/277/41 314/277/41 312/276/41
f 337/277/40 335/275/40 329/275/40 328/277/40
f 320/274/35 319/280/35 312/280/35 321/274/35
f 333/266/32 337/277/32 319/276/32 311/268/32
f 311/281/35 319/280/35 320/274/35 322/273/35 313/260/35
f 321/274/42 318/282/42 316/278/42 326/273/42
f 313/260/30 322/273/30 336/278/30 334/262/30
f 325/283/37 323/284/37 340/284/37 341/283/37
f 329/275/36 330/278/36 332/278/36 331/275/36
f 328/277/36 329/275/36 331/275/36 327/277/36
f 314/277/41 337/277/41 328/277/41 327/277/41
f 318/275/39 314/277/39 327/277/39 331/275/39
f 316/278/42 318/282/42 331/282/42 332/278/42
f 335/275/41 336/278/41 330/278/41 329/275/41
f 317/285/36 315/286/36 333/266/36 334/262/36
f 323/284/36 325/283/36 336/278/36 335/275/36
f 324/287/36 323/284/36 335/275/36 337/277/36
f 315/286/36 324/287/36 337/277/36 333/266/36
f 325/283/36 317/285/36 334/262/36 336/278/36
f 339/285/36 341/283/36 340/284/36 342/287/36 338/286/36
f 317/285/32 325/283/32 341/283/32 339/285/32
f 323/284/37 324/287/37 342/287/37 340/284/37
f 315/286/38 317/285/38 339/285/38 338/286/38
f 324/287/30 315/286/30 338/286/30 342/287/30
f 310/261/38 306/288/38 344/271/38 346/264/38
f 305/279/37 309/262/37 345/263/37 343/269/37
f 309/262/36 310/261/36 346/264/36 345/263/36
f 303/281/35 304/289/35 344/258/35 343/257/35
f 302/261/34 298/288/34 348/271/34 350/264/34
f 297/279/33 301/262/33 349/263/33 347/269/33
f 301/262/31 302/261/31 350/264/31 349/263/31
f 295/281/29 296/289/29 348/258/29 347/257/29
